<svg width="48" height="48" viewBox="0 0 48 48" fill="none" xmlns="http://www.w3.org/2000/svg">
    <path d="M24 25C26.5899 25 28.846 25.4111 30.7686 26.2324L28 45H11C9.89543 45 9 44.1046 9 43V41C9.66667 30.3333 14.6667 25 24 25ZM24 4C29.5228 4 34 8.47715 34 14C34 19.5228 29.5228 24 24 24C18.4772 24 14 19.5228 14 14C14 8.47715 18.4772 4 24 4Z" fill="#FFF9F2"/>
    <path d="M24 2C30.6274 2 36 7.37258 36 14C36 18.6724 33.3276 22.7172 29.4297 24.6992C30.1815 24.9145 30.8952 25.1807 31.5713 25.4961C32.0716 25.7295 32.2888 26.3238 32.0557 26.8242C31.8222 27.3247 31.227 27.541 30.7266 27.3076C28.864 26.4387 26.6239 26 24 26C15.2245 26 10.6334 30.8972 10 41V43C10 43.5523 10.4477 44 11 44H28C28.5523 44 29 44.4477 29 45C29 45.5523 28.5523 46 28 46H11C9.34315 46 8 44.6569 8 43L8.00195 40.9375C8.55936 32.0195 12.1206 26.5436 18.5693 24.6992C14.6719 22.717 12 18.6721 12 14C12 7.37258 17.3726 2 24 2ZM24 4C18.4772 4 14 8.47715 14 14C14 19.5228 18.4772 24 24 24C29.5228 24 34 19.5228 34 14C34 8.47715 29.5228 4 24 4Z" fill="#38424B"/>
    <path fill-rule="evenodd" clip-rule="evenodd" d="M37 48C30.9249 48 26 43.0751 26 37C26 30.9249 30.9249 26 37 26C43.0751 26 48 30.9249 48 37C48 43.0751 43.0751 48 37 48Z" fill="white"/>
    <path fill-rule="evenodd" clip-rule="evenodd" d="M37 46C32.0294 46 28 41.9706 28 37C28 32.0294 32.0294 28 37 28C41.9706 28 46 32.0294 46 37C46 41.9706 41.9706 46 37 46Z" fill="#FF9000"/>
    <path d="M37 30C40.866 30 44 33.134 44 37C44 40.866 40.866 44 37 44C33.134 44 30 40.866 30 37C30 33.134 33.134 30 37 30Z" fill="white"/>
    <rect x="36" y="32" width="2" height="7" rx="1" fill="#FF9000"/>
    <rect x="36" y="40" width="2" height="2" rx="1" fill="#FF9000"/>
</svg>
